<svg width="1360" height="308" viewBox="0 0 1360 308" fill="none" xmlns="http://www.w3.org/2000/svg">
<path d="M1319.95 342.34V303.243C1304.21 331.374 1276.08 347.108 1238.89 347.108C1186.45 347.108 1152.12 317.07 1152.12 270.82C1152.12 221.234 1191.69 195.487 1267.02 195.487C1281.81 195.487 1293.73 195.964 1314.23 198.348V179.752C1314.23 143.516 1294.68 123.014 1261.3 123.014C1226.02 123.014 1204.56 143.993 1203.13 179.276H1159.27C1161.65 122.537 1202.18 84.8701 1261.3 84.8701C1323.76 84.8701 1360 120.153 1360 180.229V342.34H1319.95ZM1197.89 269.39C1197.89 295.614 1217.44 312.779 1248.43 312.779C1288.96 312.779 1314.23 287.508 1314.23 248.888V228.386C1295.63 226.002 1282.28 225.525 1269.89 225.525C1221.73 225.525 1197.89 239.829 1197.89 269.39Z" fill="#00101A"/>
<path d="M983.157 342.339H935V0H983.157V202.638L1091.39 89.6376H1148.13L1031.31 212.174L1159.09 342.339H1097.11L983.157 222.664V342.339Z" fill="#00101A"/>
<path d="M787.488 347.108C714.539 347.108 665.429 294.183 665.429 214.559C665.429 139.702 716.446 84.8701 786.058 84.8701C861.392 84.8701 911.455 145.9 902.873 227.909H714.539C718.353 279.403 744.1 309.441 786.535 309.441C822.295 309.441 847.088 289.892 855.193 256.993H902.873C890.476 313.255 847.088 347.108 787.488 347.108ZM785.104 121.107C746.484 121.107 720.26 148.761 715.015 195.964H851.856C849.472 149.238 824.202 121.107 785.104 121.107Z" fill="#00101A"/>
<path d="M571.511 213.123V342.334H523.354V89.6325H568.173V143.034C585.814 108.228 623.958 86.2949 665.439 86.2949V136.358C611.085 133.498 571.511 157.337 571.511 213.123Z" fill="#00101A"/>
<path d="M427.392 238.399V89.6387H475.549V342.34H430.73V302.29C417.38 328.513 387.818 347.108 353.489 347.108C302.472 347.108 267.189 317.07 267.189 252.226V89.6387H315.345V242.69C315.345 286.555 337.278 304.674 368.746 304.674C401.168 304.674 427.392 277.973 427.392 238.399Z" fill="#00101A"/>
<path d="M122.06 347.108C49.11 347.108 0 294.183 0 214.559C0 139.702 51.0172 84.8701 120.629 84.8701C195.963 84.8701 246.027 145.9 237.444 227.909H49.11C52.9243 279.403 78.6713 309.441 121.106 309.441C156.866 309.441 181.659 289.892 189.765 256.993H237.444C225.048 313.255 181.659 347.108 122.06 347.108ZM119.676 121.107C81.0553 121.107 54.8315 148.761 49.5868 195.964H186.427C184.043 149.238 158.773 121.107 119.676 121.107Z" fill="#00101A"/>
</svg>
