<svg width="95" height="25" viewBox="0 0 95 25" fill="none" xmlns="http://www.w3.org/2000/svg">
<path d="M91.3564 23.694V20.988C90.2674 22.935 88.3204 24.024 85.7464 24.024C82.1164 24.024 79.7404 21.945 79.7404 18.744C79.7404 15.312 82.4794 13.53 87.6934 13.53C88.7164 13.53 89.5414 13.563 90.9604 13.728V12.441C90.9604 9.93302 89.6074 8.51402 87.2974 8.51402C84.8554 8.51402 83.3704 9.96602 83.2714 12.408H80.2354C80.4004 8.48102 83.2054 5.87402 87.2974 5.87402C91.6204 5.87402 94.1284 8.31602 94.1284 12.474V23.694H91.3564ZM82.9084 18.645C82.9084 20.46 84.2614 21.648 86.4064 21.648C89.2114 21.648 90.9604 19.899 90.9604 17.226V15.807C89.6734 15.642 88.7494 15.609 87.8914 15.609C84.5584 15.609 82.9084 16.599 82.9084 18.645Z" fill="white"/>
<path d="M68.0463 23.694H64.7133V0H68.0463V14.025L75.5373 6.204H79.4643L71.3793 14.685L80.2233 23.694H75.9333L68.0463 15.411V23.694Z" fill="white"/>
<path d="M54.5036 24.024C49.4546 24.024 46.0556 20.361 46.0556 14.85C46.0556 9.66902 49.5866 5.87402 54.4046 5.87402C59.6186 5.87402 63.0836 10.098 62.4896 15.774H49.4546C49.7186 19.338 51.5006 21.417 54.4376 21.417C56.9126 21.417 58.6286 20.064 59.1896 17.787H62.4896C61.6316 21.681 58.6286 24.024 54.5036 24.024ZM54.3386 8.38202C51.6656 8.38202 49.8506 10.296 49.4876 13.563H58.9586C58.7936 10.329 57.0446 8.38202 54.3386 8.38202Z" fill="white"/>
<path d="M39.5554 14.7507V23.6937H36.2224V6.20366H39.3244V9.89966C40.5454 7.49065 43.1854 5.97266 46.0564 5.97266V9.43766C42.2944 9.23966 39.5554 10.8897 39.5554 14.7507Z" fill="white"/>
<path d="M29.5806 16.5001V6.2041H32.9136V23.6941H29.8116V20.9221C28.8876 22.7371 26.8416 24.0241 24.4656 24.0241C20.9346 24.0241 18.4926 21.9451 18.4926 17.4571V6.2041H21.8256V16.7971C21.8256 19.8331 23.3436 21.0871 25.5216 21.0871C27.7656 21.0871 29.5806 19.2391 29.5806 16.5001Z" fill="white"/>
<path d="M8.448 24.024C3.399 24.024 0 20.361 0 14.85C0 9.66902 3.531 5.87402 8.349 5.87402C13.563 5.87402 17.028 10.098 16.434 15.774H3.399C3.663 19.338 5.445 21.417 8.382 21.417C10.857 21.417 12.573 20.064 13.134 17.787H16.434C15.576 21.681 12.573 24.024 8.448 24.024ZM8.283 8.38202C5.61 8.38202 3.795 10.296 3.432 13.563H12.903C12.738 10.329 10.989 8.38202 8.283 8.38202Z" fill="white"/>
</svg>
